<svg width="30" height="30" viewBox="0 0 30 30" fill="none" xmlns="http://www.w3.org/2000/svg">
<rect width="30" height="30" rx="15" fill="#0EE37D"/>
<path d="M25 9.99996V15C25 15.5 24.6667 15.8333 24.1667 15.8333C23.6667 15.8333 23.3333 15.5 23.3333 15V12L16.8333 18.5C16.5 18.8333 16 18.8333 15.6667 18.5L12.0833 14.9166L6.41667 20.5833C6.25 20.75 6.08333 20.8333 5.83333 20.8333C5.58333 20.8333 5.41667 20.75 5.25 20.5833C4.91667 20.25 4.91667 19.75 5.25 19.4166L11.5 13.1666C11.8333 12.8333 12.3333 12.8333 12.6667 13.1666L16.25 16.75L22.1667 10.8333H19.1667C18.6667 10.8333 18.3333 10.5 18.3333 9.99996C18.3333 9.49996 18.6667 9.16663 19.1667 9.16663H24.1667C24.25 9.16663 24.4167 9.16663 24.5 9.24996C24.6667 9.33329 24.8333 9.49996 24.9167 9.66663C25 9.74996 25 9.91663 25 9.99996Z" fill="black"/>
<mask id="mask0" style="mask-type:alpha" maskUnits="userSpaceOnUse" x="5" y="9" width="20" height="12">
<path d="M25 9.99996V15C25 15.5 24.6667 15.8333 24.1667 15.8333C23.6667 15.8333 23.3333 15.5 23.3333 15V12L16.8333 18.5C16.5 18.8333 16 18.8333 15.6667 18.5L12.0833 14.9166L6.41667 20.5833C6.25 20.75 6.08333 20.8333 5.83333 20.8333C5.58333 20.8333 5.41667 20.75 5.25 20.5833C4.91667 20.25 4.91667 19.75 5.25 19.4166L11.5 13.1666C11.8333 12.8333 12.3333 12.8333 12.6667 13.1666L16.25 16.75L22.1667 10.8333H19.1667C18.6667 10.8333 18.3333 10.5 18.3333 9.99996C18.3333 9.49996 18.6667 9.16663 19.1667 9.16663H24.1667C24.25 9.16663 24.4167 9.16663 24.5 9.24996C24.6667 9.33329 24.8333 9.49996 24.9167 9.66663C25 9.74996 25 9.91663 25 9.99996Z" fill="white"/>
</mask>
<g mask="url(#mask0)">
<rect width="20" height="20" transform="translate(5 5)" fill="white"/>
<rect x="5" y="5" width="20" height="20" fill="black"/>
</g>
</svg>
