<svg width="67" height="55" viewBox="0 0 67 55" fill="none" xmlns="http://www.w3.org/2000/svg">
<rect width="55" height="55" rx="27.5" fill="white"/>
<path d="M29.5704 6H65.4296C66.2969 6 67 6.70307 67 7.57044V43.4295C67 44.2969 66.2969 45 65.4296 45H29.5705C28.7031 45 28 44.2969 28 43.4296V7.57044C28 6.70307 28.7031 6 29.5704 6ZM31.1409 41.8591H63.8591V9.14095H31.1409V41.8591Z" fill="url(#paint0_linear)"/>
<path d="M29.5188 19.192H65.4302V22.3329H29.5188V19.192Z" fill="url(#paint1_linear)"/>
<path d="M41.1393 20.7624H44.2803V43.4819H41.1393V20.7624Z" fill="url(#paint2_linear)"/>
<path d="M42.7107 30.2376H65.4302V33.3785H42.7107V30.2376Z" fill="url(#paint3_linear)"/>
<defs>
<linearGradient id="paint0_linear" x1="63.0088" y1="-41.2105" x2="24.9259" y2="-37.7002" gradientUnits="userSpaceOnUse">
<stop stop-color="#1CD8B6"/>
<stop offset="0.442708" stop-color="#4DF1B5"/>
<stop offset="1" stop-color="#39F18E"/>
</linearGradient>
<linearGradient id="paint1_linear" x1="61.755" y1="15.3898" x2="44.9995" y2="33.0479" gradientUnits="userSpaceOnUse">
<stop stop-color="#1CD8B6"/>
<stop offset="0.442708" stop-color="#4DF1B5"/>
<stop offset="1" stop-color="#39F18E"/>
</linearGradient>
<linearGradient id="paint2_linear" x1="43.9588" y1="-6.74007" x2="40.8662" y2="-6.70066" gradientUnits="userSpaceOnUse">
<stop stop-color="#1CD8B6"/>
<stop offset="0.442708" stop-color="#4DF1B5"/>
<stop offset="1" stop-color="#39F18E"/>
</linearGradient>
<linearGradient id="paint3_linear" x1="63.1051" y1="26.4354" x2="47.6165" y2="36.7621" gradientUnits="userSpaceOnUse">
<stop stop-color="#1CD8B6"/>
<stop offset="0.442708" stop-color="#4DF1B5"/>
<stop offset="1" stop-color="#39F18E"/>
</linearGradient>
</defs>
</svg>
