<svg width="42" height="29" viewBox="0 0 42 29" fill="none" xmlns="http://www.w3.org/2000/svg">
<path d="M41.6193 1.82774C39.8429 3.61485 38.4471 5.28012 37.432 6.82354C36.4169 8.36695 35.9094 9.62606 35.9094 10.6008C35.9094 11.1695 36.1209 11.6975 36.5438 12.1849C36.8822 12.6723 37.432 13.2003 38.1934 13.7689C39.3776 14.6625 40.3082 15.5966 40.9849 16.5714C41.6616 17.5462 42 18.8459 42 20.4706C42 22.9888 41.1964 25.0196 39.5891 26.563C37.9819 28.1877 35.9517 29 33.4985 29C30.8761 29 28.7613 28.1877 27.1541 26.563C25.4622 25.0196 24.6163 22.9888 24.6163 20.4706C24.6163 17.3025 26.0121 13.8095 28.8036 9.9916C31.5106 6.2549 35.148 2.92437 39.716 3.61502e-06L41.6193 1.82774ZM17.003 1.82774C15.2266 3.61485 13.8308 5.28012 12.8157 6.82354C11.8006 8.36695 11.2931 9.62605 11.2931 10.6008C11.2931 11.1695 11.5045 11.6975 11.9275 12.1849C12.2659 12.6723 12.8157 13.2003 13.577 13.7689C14.7613 14.6625 15.6918 15.5966 16.3686 16.5714C17.0453 17.5462 17.3837 18.8459 17.3837 20.4706C17.3837 22.9888 16.5801 25.0196 14.9728 26.563C13.3656 28.1877 11.3353 29 8.88218 29C6.25982 29 4.14502 28.1877 2.53777 26.563C0.845921 25.0196 -3.28918e-06 22.9888 -3.06903e-06 20.4706C-2.79207e-06 17.3025 1.39577 13.8095 4.18731 9.99159C6.89426 6.2549 10.5317 2.92437 15.0997 1.463e-06L17.003 1.82774Z" fill="url(#paint0_linear)"/>
<defs>
<linearGradient id="paint0_linear" x1="37.7018" y1="64.1052" x2="-2.9348" y2="58.6805" gradientUnits="userSpaceOnUse">
<stop stop-color="#1CD8B6"/>
<stop offset="0.442708" stop-color="#4DF1B5"/>
<stop offset="1" stop-color="#39F18E"/>
</linearGradient>
</defs>
</svg>
