<svg width="69" height="55" viewBox="0 0 69 55" fill="none" xmlns="http://www.w3.org/2000/svg">
<rect width="55" height="55" rx="27.5" fill="white"/>
<path d="M52.7881 19.469C51.5254 20.708 49.8038 21.4115 48 21.4115C46.1962 21.4115 44.4746 20.708 43.2119 19.469C41.9506 18.2315 41.25 16.5622 41.25 14.8308C41.25 13.0994 41.9506 11.4301 43.2119 10.1925C44.4746 8.9535 46.1962 8.25 48 8.25C49.8038 8.25 51.5254 8.9535 52.7881 10.1925C54.0494 11.4301 54.75 13.0994 54.75 14.8308C54.75 16.5622 54.0494 18.2315 52.7881 19.469ZM35.0994 47.9038C33.4679 47.9038 32.0372 47.2106 31.207 46.2688C30.4289 45.386 30.1748 44.3199 30.6714 43.1437C31.6102 40.9198 32.9874 38.8963 34.7266 37.1898C36.4658 35.4833 38.5329 34.1274 40.8108 33.2016C43.0888 32.2758 45.5318 31.7987 48 31.7987C50.4682 31.7987 52.9112 32.2758 55.1892 33.2016C57.4671 34.1274 59.5342 35.4833 61.2734 37.1898C63.0126 38.8963 64.3898 40.9198 65.3286 43.1437C65.8252 44.3199 65.5711 45.386 64.793 46.2688C63.9628 47.2106 62.5321 47.9038 60.9006 47.9038H35.0994Z" stroke="url(#paint0_linear)" stroke-width="4.5"/>
<defs>
<linearGradient id="paint0_linear" x1="31.2982" y1="-47.4494" x2="72.3434" y2="-43.8506" gradientUnits="userSpaceOnUse">
<stop stop-color="#1CD8B6"/>
<stop offset="0.442708" stop-color="#4DF1B5"/>
<stop offset="1" stop-color="#39F18E"/>
</linearGradient>
</defs>
</svg>
